<?xml version="1.0" encoding="UTF-8"?><svg xmlns="http://www.w3.org/2000/svg" xmlns:xlink="http://www.w3.org/1999/xlink" height="304.0" preserveAspectRatio="xMidYMid meet" version="1.0" viewBox="-0.2 -0.1 330.1 304.0" width="330.1" zoomAndPan="magnify"><g><g><g><g><g fill="#202020"><path d="M162.8,164.7c-0.4,0.7,0.1,0.6,1.6-1.1l0.6-1.6L162.8,164.7z"/><path d="M173.6,154.3c1.6-2.1,3.2-4.6,1.7-3.8c-1.3,2.3-1.9,2.6-3.3,5.1c-1.4,1.7-2.7,2.7-2.6,2.3 c-0.4,0.7-2.4,2.5-2.9,3.6c2.3-1.8,4.7-4.5,7-7.6C174.1,153.4,173.7,154.1,173.6,154.3z"/><path d="M325.6,167.5c0.1-0.4,0.3-0.9,0.4-1.3C325.9,166.5,325.8,167,325.6,167.5z"/><path d="M241.9,264.1c1-0.3,1.4-0.4,1.4-0.5C242.4,263.9,241.7,264.1,241.9,264.1z"/><path d="M219.6,265.1c0.5,0.1,0.9,0.1,1.3,0.2C220.4,265.1,219.9,265,219.6,265.1z"/><path d="M325.6,167.5c-0.4,1.1-0.7,2.3-1.1,3.4c0.1,0.1,0.2-0.3,0.4-0.9C325.2,169.3,325.4,168.3,325.6,167.5z"/><path d="M193.7,132.1c-0.5,0.5-1,1-1.3,1.4c0.4-0.4,0.9-0.9,1.3-1.3C193.6,132.2,193.6,132.2,193.7,132.1z"/><path d="M308.9,115.7c-0.3-0.2-0.5-0.5-0.8-0.7c-0.3-0.1-0.6-0.2-0.9-0.3C307.8,115,308.4,115.3,308.9,115.7z"/><path d="M267.5,101.5c1,0.1,1.4-0.4,1.8-0.6c-0.6,0.2-1.3,0.2-2.2,0.2C267,101.2,267.2,101.4,267.5,101.5z"/><path d="M202.7,126.9l-0.9,0.9C202,127.6,202.4,127.2,202.7,126.9z"/><path d="M325.8,141.6c-0.1,0.1-0.1,0.3-0.1,0.4C325.8,142,325.8,141.9,325.8,141.6z"/><path d="M3.9,248.6C3.9,248.5,3.8,248.6,3.9,248.6C3.9,248.8,3.9,248.9,3.9,248.6z"/><path d="M2.8,301.2l0-0.7c-0.1-0.1-0.2-0.2-0.3-0.1L2.8,301.2z"/><path d="M182.1,250c0.1,0,0.1,0.1,0.1,0.1C183.2,250.6,182.7,250.3,182.1,250z"/><path d="M84.1,168.4c1-4.3-0.4,7.1,1,0.7C84.8,169.6,85.1,163,84.1,168.4z"/><path d="M194.6,131.3c0.5-0.4,0.9-0.8,1.4-1.2C195.3,130.7,194.9,131,194.6,131.3z"/><path d="M85.1,169L85.1,169l0.1-0.7C85.2,168.6,85.1,168.8,85.1,169z"/><path d="M117.5,207c0.2-0.1,0.4-0.4,0.6-0.8C118,206.3,117.9,206.4,117.5,207z"/><path d="M162.8,235.3l-1.2-1.3C162,234.6,162.4,235,162.8,235.3z"/><path d="M98.6,237.4c-0.3,0.3-0.4,0.3-0.8,0.9c0,0,0.1,0,0.1,0C98.1,237.9,98.3,237.7,98.6,237.4z"/><path d="M92,206.9c0,0.2,0,0.5,0,0.7c0.1,0.4,0.1,0.8,0.2,1.2L92,206.9z"/><path d="M4.7,130.6c-0.2,0.8-0.3,1.4-0.5,1.8C4.5,131.8,4.5,137.5,4.7,130.6z"/><path d="M193.9,132.3c0.1-0.2,0.3-0.5,0.7-0.9c-0.3,0.3-0.6,0.6-0.9,0.9C193.6,132.4,193.6,132.4,193.9,132.3z"/><path d="M97.7,244.6l-1.8,2.2l-0.2,0.3l-0.1,0.1l-0.1,0.1c0,0,0-0.1,0-0.1l-0.2-0.7l-0.3-1.4l-1.2-5.6 c0.3,1.6,0.7,3.4,1.1,5.3c0.1,0.5,0.2,1,0.3,1.5l0.2,0.7l0,0.2c0,0,0,0.2,0.1,0.1l0.2-0.3C96.4,246.2,97.1,245.4,97.7,244.6z"/><path d="M21,147.9l-0.2-1.4C20.8,147,20.9,147.5,21,147.9z"/><path d="M89.9,220.1c0-1.1-0.1-2.3-0.2-3.5c-0.1-0.2-0.2-0.5-0.2-0.7L89.9,220.1z"/><path d="M4.1,132.4C4.2,132.3,4.2,132.3,4.1,132.4C4.2,132.3,4.2,132.3,4.1,132.4z"/><path d="M4.4,173c0.1-5.9-0.6-2.8-1-4c0-7,0.5-3.2,0.9-5.6c-0.1-4.4-0.6-7.8-0.5-11c0.1-0.2,0.2-0.9,0.3-0.1 c-0.4-4.6,0.3-13.7-0.2-19.2c0.1-0.4,0.1-0.6,0.2-0.7c-0.3,0.9-0.7,1-0.9,0.8c0.1-2.6-0.2-4.9,0.2-5.9 c-0.1,1.6,0.1,1.8,0.2,2.5L3.6,127c0.7-2.5,0.1,3.8,0.5,3.8c0-5.4-0.3-11.7,0-15.8c0.6-0.8-0.1,9.7,0.6,4.2l-0.4,6.4 c1.1-4.8-0.2,3.9,1-0.6c0.5-8.4,0-9.4,0.5-17.8c-0.3-1.9-0.5,0.6-0.8-1.3C4.9,94,6.8,96.6,6.5,87.8c-0.3-2.3-1-3.2-0.3-9.4 l0.6,2.2C7.2,72.5,6,75.9,7,67.4c0.2,1.5-0.1,6.4,0,5.2c0.8-5.5-0.2-3.9,0.1-8.2l0.6-0.8c0.4-8.7,0.6-18.2,1.1-27.8 c0.1,0.5,0.2,2.2,0.5,0c0.3-5.7,0.7-11.8,1.2-17.9c0.6-6,1.2-12.1,1.8-17.6L7.6,0.2c0,0.7,0,1.3,0,1.9l0.8,4.4 c0.1,1-0.1,1.9-0.3,0.8c0.1,4.6,0.3,0.2,0.7,2.4c0.2,2.6-0.1,3.4-0.3,1.8c0.4,4,1,9.7,1.5,15.5c0.2,2.9,0.5,5.8,0.6,8.5 c0.2,2.7,0.3,5.2,0.3,7.3l-0.3-1.6c0.3,6.6,1.6,7.3,1.6,13.5L12,53.5c0.9,14.3,2.8,30,3.1,40.9c0.9,2,1.1,14.1,2.2,14.9 c0.4,8.2-0.1,5.9,0.9,17.4c0.3,3.1,1.2,4.5,1.7,8.2l-0.5,0.2l1.2,5.1l-0.3,2.8l0.6,3.5c-0.1-1.4-0.1-3,0-2.8 c0.9,5.5,1.3,13.5,1.1,13.7l2.2,13c-0.3-0.3-0.6-2.4-1-4.1c1.5,6.9-0.4,1.3,1,7.7c0-0.9,0.4,0.4,0.5,0.5 c0.1,3.2,1.2,10.5,2.1,15.8l-0.5-1c0.6,4.8,1.5,9.9,2.3,15.2c0.9,5.2,1.7,10.6,2.6,16c-0.5-3.9,0.3-3.1,0.9,0l-0.4,1.4 c0.7,2-0.3-3.4,0.8,0.8c0.6,4.1-0.2,2.8-0.8,0.5l1,4.9c-0.1,0.3-0.4-0.8-0.7-1.1c0.7,2,0.9,8.6,2,11.4l-0.1,0.3 c0.9,5.4,1.6,9.3,2.4,13c0.7,3.7,1.4,7.1,2.2,11.5c0.5,0.1,1.1,3.5,1.9,6.1c0.3,1.6,0.5,3.3,0.8,5c0.1,0.9,0.3,1.7,0.4,2.6 c0.1,0.5,0.1,0.9,0.2,1.4c0.1,0.7,0.3,1.5,0.4,2.2l0.2,1.1l0.1,0.6c0,0,0,0,0,0.1l0.1,0l0.1,0l0.3,0c0.8,0,1.5,0,2.3-0.1 c0.4,0,0.8,0,1.2-0.1l0.9-0.1c0.5,0,1-0.1,1.5-0.2c2-0.3,4.1-1,6-2c2.6-1.5,2.9-1.9,2.8-2c0-0.1-0.4,0,0.6-0.9 c0.3,0.1,2.1-1.2,3.4-2.2c1.2-1.1,1.9-1.7,0.5-0.1c1.8-1.8,3.1-3.4,4.2-4.9c1.1-1.5,1.9-2.9,2.8-4.4c1.6-3,3.2-6.5,5.1-12.3 c-0.6,1.2-1.2,2.6-1.1,1.8c0.7-2.1,1.8-4.7,1.9-4.3l-0.1,0.6c0.9-3.3,1.8-6.9,2.6-10.5c0.8-3.7,1.6-7.5,2.2-11.1 c1.3-7.3,2.6-14.3,2.8-19.7l0,0.6l1.1-11.1c0.8-5.1-0.1,3.1,0.7-0.6c0.9-12,2.7-18.7,3.6-28.6c2.4-7.4,3.7-26.9,5.9-37 l-0.4,0.5c0.1-2.7,0.6-3.2,1-5.1c-0.3,0.2-0.7,2.8-0.6,1.2c1.9-15.1,4.3-30.7,6.8-46.3l-4.8-0.9c-0.9,3.8-2,7.5-2.9,11.3 c-0.4,1.9-0.8,3.8-1.3,5.6l-0.6,2.8l-0.5,2.8c-0.8,4.2-0.6,5.5-0.5,7c0.1,1.5,0.1,3.3-1,8.6l-0.1-3.1c-0.9,8.6-1.8,17.3-2.4,26 c-0.2,4.4-0.6,8.7-0.6,13c0,2.2-0.1,4.3-0.1,6.4c0.1,2.1,0.1,4.3,0.2,6.4c-0.1-1-0.3-1-0.3-2.7c-0.2,1.8-0.2,5.1,0,7.9 c0.2,2.8,0.5,5.3,0.6,5.3c0.1,2.6-0.3,0.6-0.4,2.2c0,3.6,1.1,8.9,0.8,10.8c0,0.3-0.2-1-0.3-1.6c0.3,2.3,1,10.8,1.2,8.5 c0.1,3.2,0.6,6.1,1,9c0.2,1.4,0.4,2.8,0.6,4.1c0.2,1.3,0.4,2.6,0.5,3.9c0.5,1.6,0.9,4.3,1.2,6.7c0.4,2.4,0.8,4.5,1.3,4.9 c-0.4-0.2-0.1,2.6,0.6,5.9c0.2,0.8,0.4,1.7,0.6,2.5c0.3,1.5,0.7,2.9,1,4.3c0.3,1.4,0.6,2.6,0.9,3.7c0.1,0.5,0.3,1,0.4,1.5 c0,0.4,0.2,0,0.4-0.2c0.2-0.2,0.3-0.4,0.4-0.6c-0.8,1.1,0.1,0.1,1.1-0.9c0.9-1,1.9-2,1-0.7c1.3-1.6,2.6-3.2,3.8-4.7 c0.3-0.4,0.6-0.9,0.9-1.2c0.3-0.4,0.5-0.7,0.7-1c0.9-1.3,1.3-2,0.8-1.8c2.9-3.1,5.2-6.7,7.1-10c1.9-3.2,3.5-6.2,5.2-7.9 c3.2-6,6-11.9,8.5-17.8c0.2-0.5,0.2-0.5,0.3-0.6l0.2-0.4l0.3-0.9l0.1-0.2c0-0.1,0.1,0.1,0.1,0.1l0.3,0.3l0.6,0.7 c1.8,2.3,3.5,4.6,5.3,6.8c-0.4,0.1-2.5-2.6-4.4-5.2c-0.2-0.3-0.5-0.6-0.7-1c-0.1-0.1-0.2-0.3-0.3-0.4c-0.1-0.2-0.3-0.3-0.4-0.4 c-0.2-0.2-0.3-0.1-0.2,0.3c0.1,0.1,0.3,0.3,0.5,0.4l0.1,0.1c0,0,0,0,0,0l0.1,0.1l0.1,0.2c0.2,0.3,0.4,0.5,0.6,0.7 c0.4,0.5,0.8,1,1.2,1.4c1.5,1.9,3,3.6,4.4,5.4c2.9,3.5,5.8,7,9.3,11.5c1.8,2.4-1.3-1.1-2.1-1.8c7.5,8.7,14.5,17,22.4,23.7 c-0.1,0-0.9-0.7-1.7-1.3c1.5,1.4,3.4,3.3,3.5,2.9l-1.5-1.3c-1-1.3,0.6-0.1,2.6,1.3c2,1.5,4.4,3.1,4.6,3.2c-1.6-0.7,0.2,1,2,2.5 c1.7,1.5,3.3,2.8,0.7,1.7c1.1,0.8,2.6,1.6,2.5,1.2c1.5,1.2,2,1.7,0.2,0.8c3,2.1,4.1,2.6,5.1,3.1c0.5,0.2,1,0.5,1.7,0.9 c0.7,0.4,1.6,1,3,1.8c-0.1,0.1-1.3-0.5-2-0.7c3.1,1.4,6.1,2.9,11.1,5.4c-0.3,0,0.2,0.4-1.3-0.4c4.4,2,8.3,3.2,12.4,4.3 c4.1,1,8.4,1.7,13.6,2.4c-3.2,0.5,3.6,0.6,4.1,1.2c1,0,1.9,0,2.9,0l2.9-0.2l-2.3-0.2c5-0.1,9.3-1.1,13.5-1.8 c-1.2,0.3-2.4,0.7-3.6,0.9c3.1-0.6,6.1-1.3,9.1-2.2c-1.7,0.5-3.4,0.8-5.2,1.1c2.4-0.8,2.2-0.9,2.2-1.1c0-0.2,0.3-0.2,3.4-1.1 c-0.6,0.2,0.6-0.1,2.2-0.6c1.6-0.5,3.7-1.3,5-1.6l0,0c1.1-0.6,2.2-1.2,3.4-1.8c1.2-0.7,2.6-1.4,4.2-2.2c0.9-0.3-0.3,1,0.3,0.8 c0.9-0.8,3.4-2.3,5.9-4c0.6-0.4,1.2-0.9,1.8-1.3c0.6-0.4,1.1-0.9,1.7-1.3c1.1-0.8,1.9-1.6,2.4-2.2c-0.7,0.7-0.6,1-0.2,0.9 l1.3-1.6c1.9-1.3,2.1-1.5,2-1.1c2.7-2.2,2.1-2,1.7-1.9c-0.4,0.1-0.6,0.2,2.5-2.4c-0.4,0.5-0.2,0.3-1.1,1.2 c3.1-2.7,5.9-5.5,8.4-8.4c2.6-2.9,5-5.8,7.4-8.7c1.9-1.3-4,5.2-2,3.6c6.9-8.5,12.8-18.5,18.1-27.5l-1,1.7 c-0.1-1.7,4.3-6.5,6.3-11.5c-0.5,1.2-0.3,1.7-0.3,1.4c1.7-3.2,3.3-6.5,4.9-10.3c1.6-3.8,3.1-8.2,4.6-13.5l-0.2,1.4 c0.7-2,1.5-4.7,2.1-7.5c0.3-1.4,0.6-2.8,0.8-4.2c0.1-0.7,0.2-1.3,0.3-2c0.1-0.6,0.1-1.3,0.2-1.8c-0.1-1.4,0-4-0.4-2.4 c0.6-3.5,0.5-7.1,0-10.5c-0.5-3.4-1.4-6.7-2.7-9.7c-2.6-6.1-6.3-11.4-10.2-16.3c1.1,1.1,2.6,2.6,1.8,1.6 c-2.4-2.7-5.1-5.1-8-7.2c0.4,0.9,1,1.1,2.5,2.8c-1.2-0.7-3.6-2.5-5.8-4c2,1.3,2.1,1.2,1.5,0.5c-0.3-0.3-0.8-0.8-1.3-1.2 c-0.5-0.4-1.1-0.9-1.5-1.2c0.2,0.3-0.4,0-0.4,0.2c-2.2-1.8-2.5-1.7-3.1-1.7c-0.3,0-0.6-0.1-1.3-0.3c-0.7-0.2-1.6-0.8-3.3-1.7 l0.5,0c-0.7-0.3-1.3-0.5-2-0.8c-0.7-0.2-1.3-0.4-2-0.7c-1.3-0.5-2.7-0.9-4.1-1.4c-1.1-0.9,2.9,0.8,3.2,0.5 c-4.1-1.5-8.3-1.8-12-3c1.8,0.2,4.4,0.9,6.2,1.2c-4-1.7-4.5-1.6-7.6-2.3l0.3,0.1c-2.4-0.5-4.8-1-7.3-1.3 c0.6,0.1,1.2,0.2,1.8,0.3c-1.4,0.1-2.8,0.2-4.2,0.2c-1.4,0-2.8-0.1-4.3,0c-3-0.1-6.2,0.1-9.8,0.9c6.9-1.4,1.1-0.6,1.6-1.1 c-1.9,0-4.7,0.3-3.9,0c-0.8,0.2-1.6,0.4-2.4,0.5c-0.8,0.1-1.5,0.2-2.3,0.4c-1.6,0.3-3.4,0.7-5.6,1.7c-0.3-0.1-3.5,1.2-2.9,0.5 c-4.2,1.6,1.1-0.1,0.8,0.3c-1.6,0.7-3.4,1.3-5.2,2c-0.9,0.4-1.9,0.7-2.9,1.1c-0.5,0.2-1,0.4-1.5,0.6c-0.5,0.2-1,0.4-1.5,0.7 c-2,0.9-4.2,1.8-6.2,3c-1,0.6-2.1,1.2-3.1,1.8c-1,0.6-2,1.4-3,2.1c-7,4.9-7.9,6.3-13.9,11.4c-1.1,0.7-0.8,0.3-0.2-0.4 c0.3-0.3,0.7-0.7,1-1c0.3-0.3,0.5-0.5,0.5-0.5c-1.8,1.2-3.2,2.4-4.7,3.6c-1.4,1.2-2.7,2.5-4.2,3.9c0.5-0.7-0.2-0.2-1.3,0.5 c-2.4,2.2-1.2,1.9-4.5,4.7c0.4-0.6,0.9-1.5,1.9-2.7c-2.7,2.7-5.2,5.6-7.9,8.5c-1,0.5,1.4-2,2.2-3.1c-3.1,3.2-7.9,8.4-8.5,9.8 l2.1-2c-1.1,1.2-0.9,0.3-0.1-0.6c2.4-3,4-3.8,4.2-3.9l-1.9,2.1c2.7-1.4,7.9-8.1,12.1-11.9l-1.2,2.1l1.9-2.2l2-2.1 c1.1-0.7,2-0.9-0.1,1c3.3-2.4,2.5-2.6,5.5-4.5c0.3-0.2,0.2-0.1,0,0.2c1-0.9,1.9-1.8,2.9-2.7c-0.5,0.6,0.8,0-1.1,1.4 c1.4-1.1,2.7-2,3.9-2.9c1.1-0.9,2.1-1.8,3-2.4c1.8-1.4,3.2-2.5,4.5-3l-0.5,0.4c4.1-2.8,4.2-3,4.1-3.1c-0.1-0.1-0.2-0.1,0-0.4 c0.3-0.3,0.9-0.9,2.4-1.9l5-1.3l0.6-0.9c0.9-0.4,2.8-1.3,2.5-0.9c3.2-2-0.7,0.1,1.2-1.2c1.1-0.5,2.5-0.9,3.9-1.5 c1.4-0.5,2.8-1.2,4.2-1.7c2.8-0.9,5.1-1.7,5.7-1.4c0.8-0.4-0.4-0.2-1.1,0c-0.4,0.1-0.6,0.1-0.5,0.1c0.1-0.1,0.7-0.3,1.9-0.7 c1.6,0.4,5.8-1.7,10.4-1.8c-1.3,0.6-5.5,1.1-1,0.8c0.6-0.3,1.5-0.5,2.5-0.6c1-0.1,2.1-0.2,3.3-0.2c1.2,0,2.3,0,3.5,0.1 c1.1,0.1,2.2,0.1,3.1,0.1c0-0.2,0.6-0.2,1.5-0.3c0.4,0,1,0,1.5,0c0.6,0,1.2,0.1,1.9,0.1c1.4,0.1,3,0.3,4.6,0.5 c1.6,0.3,3.3,0.5,4.8,0.8c-0.2,0.1,2.7,0.7,6.2,1.9c3.6,1.1,7.7,2.9,10.3,4.3l-0.2,0c0.3,0,0.9,0.1,1.6,0.4 c0.7,0.3,1.7,0.7,2.6,1.2c0.5,0.3,1,0.5,1.5,0.8c0.5,0.3,1,0.6,1.5,0.9c1,0.6,2,1.3,2.9,1.9c-0.2,0.1-0.5,0.1-0.9-0.1 c-0.5-0.2-1.2-0.6-2.2-1.2c1.2,0.7,2.2,1.6,3.3,2.3c0.4,0.2,0.9,0.5,1.6,0.9c0.3,0.2,0.7,0.5,1.1,0.8c0.4,0.3,0.8,0.7,1.3,1.1 l-1.1-0.3c2.1,1.8,4,3.6,6,5.8c1.9,2.2,3.7,4.8,5.2,7.9c0.1,0,0.1-0.3,0.1-0.7c-0.1-0.4-0.2-0.9-0.2-1.2c0-0.3,0.1-0.4,0.5,0 c0.2,0.2,0.4,0.5,0.7,1c0.3,0.5,0.7,1.1,1.1,2c-0.1,0.4-0.4,0.8-1.3-0.9c0.3,0.6,1.2,2,1.6,3.2l-0.8-1.3l-0.8-1.3 c0.6,1.5,0.8,1.8,1.1,2.1c0.2,0.3,0.4,0.5,0.9,1.7c-0.3,0.1,0.4,1.9,0,1.6c-0.1-0.3-0.2-0.8-0.4-1.4c-0.2-0.6-0.4-1.2-0.7-1.6 c1.1,2.7,1.8,6.1,1.8,7.2c0.1-0.3,0.5-0.1,0.9,2c0.5,2.7,0.4,3.2,0.3,3.4c-0.1,0.2-0.3,0.1-0.2,1.7c0.3,1.3,0.2,4.7,0.6,4.8 c-0.1,1.6-0.3,1.9-0.5,2.5c0,0.7-0.1,1.9-0.2,3.2c-0.1,1.3-0.4,2.8-0.5,4c-0.5,2.5-0.7,4.3-0.1,2.8l0.2-0.7 c0,0.1,0,0.3-0.1,0.5c0,0,0,0,0,0l0,0c-0.7,4.6-2.3,9.3-4.1,13.8c-1.9,4.5-4,8.8-6,13l-0.1-0.1c-2.3,5.1-5.7,11-7.4,14.6 c-0.9,1.4-2.3,3.2-2.1,2.4c-1.1,1.8-1.6,2.9-2.4,4.1c-0.7,1.2-1.7,2.6-3.5,5c2.1-3.7-1,1.1,2.3-3.7c-1.6,2.2-2.6,3.6-3.7,5 c-1,1.4-2,2.9-3.6,5.4c0.9-1.9-3,2.9-4.5,5l2.7-2.8c-1.8,2.3-3.5,4.3-5.2,6.2c0.2-0.5,0.3-1,0.5-1.4c-3.9,4-7.2,7.8-10.6,11.1 c-3.3,3.3-6.7,6.2-10.5,8.2c-1.1,1,0.2,0.2,1.5-0.6c1.3-0.8,2.6-1.7,1.7-0.8c-4.2,3.1-9.2,5.1-10.6,5.8 c-3.1,1.6-4.5,2.4-5.9,3.3c-0.7,0.5-1.4,0.9-2.4,1.4c-0.5,0.2-1.1,0.5-1.7,0.8c-0.7,0.3-1.4,0.5-2.3,0.8c0.5-0.1,1,0,0.7,0.3 c-0.3,0.3-1.3,0.9-3.9,1.8c-1.2,0.4-2.3,0.5-3.1,0.6c-0.8,0.1-1.3,0.1-1.6,0.1c-0.6-0.1-0.1-0.4,1.4-0.9 c1.2-0.3,1.8-0.4,1.7-0.3c1.6-0.5,3.6-1.2,1.6-0.9l-0.6,0.4c-0.6,0.1-1.5,0.3-2.5,0.5c-0.5,0.1-1,0.2-1.5,0.3 c-0.5,0.1-1,0.2-1.5,0.2c-1.8,0.3-3.2,0.4-2.4,0.1c-3.8,0.7-1.6,0.6,1.3,0.2c-1.6,0.2-3.1,0.3-4.4,0.5 c-1.4,0.1-2.6,0.3-3.9,0.3c-1.3,0-2.6,0.1-4,0.1c-0.7,0-1.4-0.1-2.2-0.1c-0.4,0-0.8,0-1.2-0.1c-0.4,0-0.8-0.1-1.2-0.1 c1.1,0.2,2,0.5,1,0.4c-4.9-0.5-6-0.7-6.7-0.6c-0.7,0.1-1,0.2-4.4-0.5c-1.8-0.6-1.4-0.7-1.4-0.8c0-0.1-0.4-0.2-3.7-1 c-3.9-1.5-0.7-0.8,0.9-0.5c-6-1.4-10.6-4.2-13.7-5.8l3,1.3c-1.8-0.8-3.2-1.4-4.6-2.2c0.5,0.4,0.9,0.8,1.4,1.2 c-1.6-1-3.1-1.7-2.9-1.9c-0.9-0.3-0.7,0-0.7,0.2c0,0.2-0.2,0.4-1.9-0.5c-2.1-1.4-6.7-4-7.1-5c1.6,1.2,2.4,1.7,2.8,1.9 c0.4,0.2,0.3,0,0.2-0.1c-0.2-0.3-0.5-0.8,2.3,1c-1.1-0.7-2.5-1.5-4-2.7c-0.2-0.2,0.3,0.1,0.7,0.3c-3-2.4-3.8-2.8-4.6-3.2 c-0.9-0.4-1.8-0.7-4.9-3.2c1,0.4-1-1.6-2.1-2.4c2.4,2.1,0.8,1.4-1.6-0.3c-3.7-3.6-4.2-3.6-6.2-5.5l2.2,2.2 c-1-0.5-2.8-2.3-5.4-4.7c0-0.4,2.4,2.2,1.6,1.2c-3.2-2.4-5.9-6.8-9.9-10.7c-1.5-2.1,0.3-0.6-1.1-2.4c-4.4-4.5-4-5.4-8.4-10.3 c0.8,1.7,1.1,1.9-2.1-1.4c2.3,2.8,4.6,5.5,7,8.2c-1.6-1.6-3.2-3.3-4.8-5c2,2.5,4.5,5.2,5.8,6.7c-2.4-2.3-2.1-2.1-1.3-0.7 c-2.4-3.8-5.9-6.6-8.7-10.9l0.9-0.5c-2.2-3.2-4.3-5.9-6.7-8.8c-0.3-0.4-0.6-0.7-0.9-1.1l-0.4-0.6c-0.2-0.3-0.5-0.6-0.7-0.9 c-0.9-1.2-1.9-2.5-2.9-3.8c-0.2-0.3-0.5-0.7-0.7-1l-0.4-0.5c0-0.1,0,0-0.1,0.1l-0.1,0.1l-0.1,0.3c-0.3,0.8-0.7,1.6-1,2.4 c-0.4,0.8-0.7,1.6-1.1,2.5c-0.2,0.4-0.4,0.9-0.6,1.3c-0.1,0.3-0.3,0.6-0.4,1l0.4-0.8l0.5-1.1l1-2.2c-0.1,0.6-0.4,1.4-0.8,2.3 c-0.1,0.2-0.2,0.5-0.3,0.7c-0.1,0.2-0.2,0.5-0.3,0.7c-0.2,0.4-0.3,0.8-0.5,1.2c-0.8,1.6-1.6,3.4-2.3,4.9 c-0.2-0.4-1.2,1.3-2,2.5c0.3,0-3.4,6.5-3.3,7.6c-0.9,1.2-1.8,2.4-2.6,3.6c-2.2,3.4-3.2,5.5-4.3,7.5c-1.1,2-2.1,4-4.4,7.1 c1.1-2.1-1.2,0.6,1.6-3.8c-1.5,2.1-2.9,3.9-2.8,4.1c-0.5,0.5-1.5,2-2.6,3.6c-0.3,0.5-0.4,0.6-0.6,0.8c-0.1,0.2-0.3,0.4-0.4,0.6 c-0.3,0.4-0.6,0.7-0.8,0.8c-0.1,0.2-0.2,0.4-0.3,0.6c-0.1,0.1-0.1,0.2-0.2,0.3c0,0-0.1,0.2-0.1,0.1c0,0,0,0,0,0 c-0.1-0.1-0.3-0.5-0.5-1.5c0-0.3,0.1-0.2,0.1-0.2c-0.1,0.1-0.3-0.6-0.5-1.1c-0.2-0.5-0.4-1-0.4,0.1c0-0.2,0-0.4,0-0.7 c0-0.3-0.1-0.5-0.1-0.8c-0.1-0.5-0.2-1.1-0.2-1.7c-0.2-1.2-0.4-2.4-0.6-3.7c-0.4-2.6-1-5.3-1.5-8c-0.9-5.4-1.8-10.7-1.7-14.2 c-0.4-2.8-0.9-5.9-1.2-9c-0.3-3.1-0.7-6-0.8-8.6c0.1,0.3,0.2,0,0.2,1c-0.1-3.6-0.4-4.6-0.7-5.8c-0.3-1.2-0.7-2.5-0.6-6.6 c0.4-4.2,0.5,4.3,0.6,1.7c0.5-0.6,0.4-3,0.2-6c-0.2-3-0.3-6.5,0-9.2l0.1,1.3c0.2-2.1,0-4.6,0-7.5c-0.1-2.9-0.2-6.1,0-9.5 c0,0,0.1,0.3,0.2,0c-0.4-4.7,0-13.5,0.6-20c0.2,2.1-0.1,3,0.5,1.8c0.3-2.9-0.8,0.8-0.3-5.1c0.2-0.9,0.5-2.4,0.8-3.8 c0.3-1.3,0.7-2.5,1-2.7l-0.4,2.7l-0.3,2.7c0.9-2.7,0.9-7.1,1.4-10l0.2,0.4c0.3-2.1,0.5-3.7,0.6-5c0.2-1.3,0.3-2.4,0.4-3.5 c0.2-2.2,0.4-4.5,1.4-9l-0.4,0.9c0.2-2.5,0.5-3.5,0.8-4.5c0.3-1,0.7-2,1-4.5l1-1.3c0.2-1.2,0.6-3,1-5.5l-2.1-0.4 c-0.3,3.3-0.7,8-1.1,11.8c0-2.7,0.4-7.8,0.7-11.8l2.8,0.6c-0.2,1-0.3,1.9-0.5,2.7c0.2-0.7,0.4-1.6,0.6-2.7l-3.1-0.6 c-0.5,3.7-1.1,8.7-1,10c0.1-1.3,0.2-3,0.5-4.3c0,4-0.5,9.3-1.4,15.7c-1.2-1.3-2.7,16.8-4.4,21.3c-1.1,11.5-3.4,22.6-5.2,35.9 c1.7-4.6-0.5,3.9,0.7,3.2c-0.4,3.1-0.5,4.3-0.7,4.5l-1.9,9.3c-0.6,2.2,0.2-3-0.1-2.7c-1,6.8-0.8,2.8-1.8,7.2 c0.5-0.9,0.2,2.4-0.5,6.3l1.3-5.4c-0.8,9.5-2,8.1-2.8,17.7l0.1-3.1c-0.5,4.9-2.5,18.1-2.4,23c-0.2,0.8-0.7,2-0.5-0.2 c-0.4,2.9-0.8,6-1.2,9.2c-0.4,3.1-0.8,6.2-1.3,9.3c-1.1,6.1-2.6,11.7-4.5,15.8l0.1-0.9c-0.7,2-0.9,3.7-2.3,6 c0-0.2,0.1-0.9-0.3,0c-0.2,0.5-0.7,1.8-1.5,3.3c-0.7,1.5-1.7,3-2.6,4.1c0.4-0.7,0.8-1.4,1.1-2.1c-3.2,4.5-6.1,7.4-9.2,9.6 c-1.6,1.1-3.3,2-5.2,2.6c-0.9,0.3-1.9,0.6-3,0.7c-0.4,0.1-0.6,0.1-1,0.1c-0.2,0-0.3,0-0.5,0l-0.1,0l0-0.1l-0.1-0.2 c0.2-0.2,0.3-0.6,0.3-1c0,0,0-0.1,0-0.1c0-0.1,0-0.3,0-0.4c0-0.3,0-0.6-0.1-0.9c-0.1-0.6-0.1-1.3-0.2-2 c-0.3-2.8-0.9-6.2-1.2-8.4l0.1,0.1c-2.3-13.2-4.7-22.3-7-34.5c-0.3-3.9-1.2-10.3-2.3-17.4c-1.1-7-2.2-14.6-2.9-20.8 c0.1,1.9-0.6-0.2-1-2.4c-0.3-2.9-1.7-7.9-0.9-7.5l0.1,1c0.4-2.3-0.7-8.1-1.3-12.8l-1-0.6c-0.3-12.3-4.6-31.6-4.1-38.4 c-0.6-2.9-1-6.5-1.6-9.4l0.5,0.1c-0.7-8.1-1.2-12.2-2.3-22.2l0.6,2c-0.5-5.7-2.1-7-2.7-12.2l0.6-1.6 c-0.9-9.9-1.2-19.9-2.6-29.7c0.1,0.2,0.4,0.4,0.5,2c-0.2-2.3-0.5-6.8-0.7-10.5c-0.3-3.7-0.6-6.6-1.1-5.7 c0.7-0.2-0.7-10.2-1.3-15.5l0.5,0.8c-0.9-4.5-1.1-4.6-1.7-10.9c0-1.5,0.3-1.3,0.3,0.7c-0.1-5-0.7-3.9-0.8-9.9l0.4,2.2 c-0.2-5.1-0.4-4.7-0.9-7.5c-0.2-1.3-0.3-3.2-0.3-5L9.1,0c-0.3,2.6-0.7,5-1,5.5C8.3,6.2,8.5,9,8.1,12c-0.2,0.4-0.2-0.7-0.2-1.3 c-1,8.5-0.4,12.8-1.3,18.6c-0.2,0.1-0.3,0.5-0.4,1c0.5-6.8,0.9-12.3,0.9-11.8c-0.5,0-0.9,5.5-1.2,1c0,4.4,0.2,12-0.4,17.4 c-0.1,0.3-0.1,0.5-0.2,0.7l0-0.6c-0.1,1.2-0.2,2.3-0.1,3.4C5,42.3,4.8,43.3,4.7,45c-0.4,0.6-0.6,6.3-0.8,9 c0.5-0.2,0.2,3.4,0.8,0.1c-0.1,0.4,0-0.5,0.1-2.3c0-0.4,0-0.9,0-1.2c0,0.1,0,0.1,0,0.2c0.1-1.8,0.2-4.2,0.4-6.8 c0.1,2.2,0.2,4.5-0.3,7.5c0.2,1.4,0.5,3,0.5,3.9C4.6,59,3.8,66.2,3.4,67.2C3.1,75.6,2.5,87,3.2,92.3c0,2.4-0.4,2.7-0.6,3.6 c0-1.4,0.1-3,0-3.8c0,4.8-0.5,14.1,0.1,15.3c-0.5,6-0.5-3.4-0.7,4.9l-0.2-1.1c-0.8,8.1-0.6,14.7-0.5,21.6 c0.2,6.8,0.3,13.9-0.5,22.9c0.1-1.2,0.2-1.9,0.3-2.1C0,174,0.9,195.8,0,216.1c-0.2,5.8,0.2,6.4,0.6,9.9l-0.5,1.3l0.7,6 c0.3,4.3,0,8-0.3,11.9c-0.2,4-0.4,8.2,0.2,13.6l0.3-1.4c0,3.9,0.5,12.3,0,11.6c0.1,0.4,0.4,1.3,0.3,2.8L1,272l0.7,9.5 c0,7.4-1.1-1.1-0.9,9.7c0.2,4,1.2,11.4,1.3,9.9c0-1.6,0-4.1,0.3-4.3l0.3,3.7c0.8,0.6,1.8,3.4,2-5.6l-0.7-6.2l0.3-2l0.2,5.3 c0.3-3-0.1-4.9-0.4-7c0.2-0.5,0.3-1.4,0.4-2.6l-0.9-6.1c0.3-0.8,0.7,2.7,0.8-1.4c-0.4-2.9-0.6,2.8-1-2c0.3-3,0.6-2.1,0.2-5.6 c0.2-0.5,0.3,0.2,0.5,1.6c-0.3-3.1-0.3-8.3-0.7-9.9c0.4-3.1-0.3-10.6,0.5-10.3c-0.2-1-0.7-5.5-0.7-8.4c1,5.2,0-10.8,1-9.4 c-0.9-3.9-0.4-14-0.9-20.9c0.1,0.4,0.2,1.1,0.2,1.7c0.1-3.9,0.3-5,0.5-7.5c-0.7-0.5-0.8-6.5-1.2-9.8c0.7-4.7,0.8,2.9,1.4,1.4 c-0.6,0.2-0.5-8.3-1-6.6c0.4-3.6,0.2-3.1,0.8-5c-0.8-0.6-0.1-3.4-0.6-6.4c0.5-5.2,0.8-1.3,0.6-7.1C4.2,167.9,4.4,173,4.4,173z M8.6,35.8L8.6,35.8C8.6,37,8.5,38,8.5,38.6C8.5,38,8.6,37.2,8.6,35.8z M9.4,24.3c-0.1,1.4-0.2,3.1-0.4,5 c-0.2,0.4-0.3-0.1-0.2-1.2C8.9,28.7,9.2,26,9.4,24.3z M4.4,48.4c0-1.8,0.2-2.4,0.3-2.7c0,0.9-0.1,1.9-0.1,3.2 c0,0.1,0,0.2,0,0.2C4.5,49,4.4,48.8,4.4,48.4z"/><path d="M4.8,51.7c0,0.3,0,0.4,0,0.8c0.1-0.4,0.1-0.7,0.2-1.1c0-0.2-0.1-0.5-0.1-0.7 C4.9,51.1,4.8,51.4,4.8,51.7z"/><path d="M326.1,166l-0.1,0.2c0.1-0.2,0.1-0.4,0.2-0.5C326.1,165.9,326.1,165.9,326.1,166z"/><path d="M19.2 135.1L19.4 135.1 19.1 134.1z"/><path d="M305.2,110.3c-0.1-0.1-0.3-0.3-0.6-0.6C304.6,109.8,304.9,110,305.2,110.3z"/><path d="M279.4,100.3c-1.3-0.3-2.6-0.6-3.9-0.8C277.2,99.8,278.4,100.2,279.4,100.3z"/><path d="M258.1,99.1c-0.3,0.1-0.3,0.2-0.4,0.2c0,0,0,0,0,0L258.1,99.1z"/><path d="M161.5,238.7c-0.2-0.2-0.4-0.4-0.6-0.5C159.5,236.9,160.4,237.8,161.5,238.7z"/><path d="M253.8,262.1c-1,0.5-1.9,1-2.9,1.4C252.6,262.9,253.9,262.4,253.8,262.1z"/><path d="M98.5,243.7C98.5,243.7,98.5,243.7,98.5,243.7c-0.3,0.3-0.5,0.6-0.8,1L98.5,243.7z"/><path d="M246.5,265c1.8-0.4,3.2-1,4.5-1.5C249.5,264,247.9,264.6,246.5,265z"/><path d="M180.1,145.3l-0.7,0.7c0,0,0,0.1,0,0.1L180.1,145.3z"/><path d="M179.4,146.2l-0.7,0.9C179,146.6,179.3,146.3,179.4,146.2z"/><path d="M177.1,148.8l1.6-1.8C178.1,147.6,177.3,148.4,177.1,148.8z"/><path d="M200.7,126.2l0.1-0.3C200.7,126,200.7,126.1,200.7,126.2z"/><path d="M207.4,120.8c-0.8,0.6-1.9,1.3-3.1,2.1c-1.1,0.8-2.3,1.7-3.4,2.7l-0.1,0.3c0.4-0.5,1.7-1.4,3.1-2.4 C205.3,122.5,206.7,121.6,207.4,120.8z"/><path d="M239.4,105.6c-1.1,0.3-2.2,0.8-3.3,1.2l-3.3,1.3c1.2-0.3,2.8-0.7-0.1,0.6c4.2-1.4,3.7-1.3,3.3-1.3 c-0.2,0-0.4,0-0.1-0.2c0.2-0.1,0.5-0.3,1.1-0.5C237.5,106.3,238.3,105.9,239.4,105.6z"/><path d="M260.7,101.3c-3.7,0.4,0.1,0.2-0.1,0.4C262.9,101.5,263.5,101.4,260.7,101.3z"/><path d="M305.4,210.7l-0.2-0.6C303.7,212.6,305.3,210.2,305.4,210.7z"/><path d="M288.9,236.5l2.1-2l0.6-1.3C290.8,234.3,289.9,235.4,288.9,236.5z"/><path d="M273.8,246.6l0.9-0.9c-1.2,1.1-2.4,2.1-3.7,3.2C272,248.1,272.9,247.4,273.8,246.6z"/><path d="M93.3,213.6l-0.4,1C93.3,216.5,94,216.9,93.3,213.6z"/><path d="M95.8,99.1c0.5-1.2,1.3-4.3,1.5-6.3C96.7,95.3,96,97.8,95.8,99.1z"/><path d="M27.4 165L27.9 167.3 27.2 163z"/></g></g></g></g></g></svg>