<svg xmlns="http://www.w3.org/2000/svg" xmlns:xlink="http://www.w3.org/1999/xlink" preserveAspectRatio="xMidYMid meet" version="1.0" viewBox="0.0 0.0 500.0 500.0" zoomAndPan="magnify" style="fill: rgb(0, 0, 0);" original_string_length="801"><g clip-rule="evenodd" fill-rule="evenodd"><g id="__id2_sxsffnxngf"><path d="M391.2,0L215.7,175.5L40.3,0H391.2z M175.5,324.5L0,500V149.1 L175.5,324.5z" style="fill: rgb(0, 65, 12);"/></g><g id="__id3_sxsffnxngf"><path d="M500,26.4L350.9,175.5L175.5,0H500V26.4z M0,188.1 c0.8,0,1.6,0.3,2.2,0.9l133.3,133.3c1.2,1.2,1.2,3.2,0,4.4L2.2,460C1.6,460.7,0.8,461,0,461v-7.4l129-129L0,195.6V188.1z" style="fill: rgb(38, 120, 110);"/></g><g id="__id4_sxsffnxngf"><path d="M444.6,0h-8.7l-85,85l-85-85h-8.7l91.5,91.5 c1.2,1.2,3.2,1.2,4.4,0L444.6,0z M175.5,74.5L0,250V0h100.9L175.5,74.5z" style="fill: rgb(227, 178, 31);"/></g></g></svg>