<svg xmlns="http://www.w3.org/2000/svg" xmlns:xlink="http://www.w3.org/1999/xlink" preserveAspectRatio="xMidYMid meet" version="1.0" viewBox="-0.2 -0.5 2111.4 1568.6" zoomAndPan="magnify" style="fill: rgb(0, 0, 0);" original_string_length="3588"><g data-name="Layer 2"><g data-name="Layer 4" id="__id5_sxsffnxngf"><path d="M954.45,864.23c3.57-2.27,7.14-4.52,10.7-6.81,36.81-23.75,75.27-44.15,117.06-57.86,16.22-5.31,32.75-9.35,49.77-10.37,33.81-2.05,61.4,9.41,80.25,38.75,11.54,17.95,17.87,37.9,22.47,58.47,4.86,21.77,9.19,43.67,14,65.46a175.77,175.77,0,0,0,11.67,35c14.07,30.88,39.09,44.68,74.69,40.72,24.77-2.75,48-10.72,70.71-20.65,40.76-17.86,78.6-40.92,115.58-65.39,75.1-49.71,146.84-104,217.62-159.63,27-21.2,53.82-42.64,79-66.06,10.25-9.55,20.14-19.45,28.66-30.63,6-7.79,10.42-16.3,12.3-26,5.18-26.56,16.64-50.52,30.3-73.56,20.93-35.32,45.07-68.46,69.5-101.39,22.24-30,44.91-59.64,65.87-90.54,19.3-28.44,37.43-57.56,50.31-89.6,7.11-17.68,12.53-35.76,13.58-55a123.26,123.26,0,0,0-13.75-64.68c-8.16-15.75-18.38-30.14-28.87-44.36-12.07-16.35-24.94-32.12-36-49.21-8.92-13.8-16.49-28.17-18.77-44.78-2-14.89,1.58-28.41,9.5-40.94a16.44,16.44,0,0,1,3.19-3.8,4.7,4.7,0,0,1,6.39-.24,4.38,4.38,0,0,1,1.4,5.38,62.84,62.84,0,0,1-3.13,6.25c-7.33,13.08-7.61,26.65-2.82,40.54,4.07,11.79,10.47,22.35,18,32.18,9.89,13,20.11,25.73,30.29,38.5,11.22,14.08,22.31,28.24,31.85,43.55,16.88,27.08,25.47,56.32,22.91,88.41-1.46,18.42-6.54,36-13.06,53.2-13.1,34.48-31.87,65.94-51.94,96.67-25,38.25-52.45,74.74-78.75,112.06-18,25.61-35.75,51.46-51.6,78.52-12.85,21.93-23.75,44.66-29.16,69.77-2.94,13.66-10.36,25.14-19.37,35.67-11.75,13.72-25.07,25.8-38.72,37.55-46.25,39.81-94.31,77.37-142.81,114.36-53.53,40.84-107.4,81.22-163.9,117.93-36.37,23.63-73.5,45.88-113.66,62.63-19.75,8.24-40,14.67-61.26,17.84-12.59,1.88-25.29,2.25-37.83.09-29.71-5.11-51-21.83-64.7-48.38-9-17.32-14-35.94-18.06-54.9-4.92-23.12-8-46.61-13.9-69.55-3.3-13-7.5-25.56-14.16-37.25-11.94-20.95-29.73-31.5-54-31.51-16.55,0-32.44,3.08-48.08,8.05-36.79,11.7-70.65,29.45-103.07,50.13a784.45,784.45,0,0,0-74.33,54.1,72.92,72.92,0,0,0-14.67,16.19C843.9,1025.24,785.75,1111,725,1195.05c-18.16,25.12-36.5,50.1-56.3,74-5.33,6.41-10.75,12.75-17.3,18-5.06,4-10.57,6.85-17.31,6.8-10.78-.08-19.15-7.17-20.48-17.94a46.53,46.53,0,0,1,1.45-17.82c4-15.26,10.75-29.38,18.09-43.24,23.16-43.74,51.5-84.06,82-122.92A1152.64,1152.64,0,0,1,858,939.74a50.17,50.17,0,0,0,8.7-9.59c60.41-90.7,120.91-181.35,175-276,23.31-40.82,45.31-82.35,61-126.81,7.24-20.44,13.6-41.15,13.34-63.22-.26-22.52-7.86-29.51-30-27.45-15.1,1.41-29.28,6.25-43.28,11.68-30.85,11.95-60,27.37-88.4,44.22C886,533.13,823,581.22,762.37,632.59c-109.81,93.13-210,196-305,304-112.2,127.51-216.85,260.9-311.08,402.31-29,43.55-56.68,88-81,134.38-7.57,14.47-14.67,29.19-20,44.69-4,11.63,1.12,20.23,13.17,22.78,2.92.62,5.92.93,8.89,1.27,6.72.77,9.34,2.46,9.53,6.6.27,5.57-3.79,7.31-8.1,8.61-8.6,2.61-17.2,5.29-26.23,6.09a32.82,32.82,0,0,0-4,.46C17.23,1568.17.56,1551.54,0,1530c-.17-6.75,1.37-13.23,3.19-19.66,4.28-15.14,10.79-29.38,17.7-43.44,21.8-44.34,47.6-86.37,74.39-127.8,60.13-93,125.78-182,194.65-268.72,94.64-119.11,195-233.18,303.22-340.16,72.63-71.77,148.55-139.79,230.43-200.94C878.14,488.51,934.77,451,996.54,421.84c24.14-11.4,48.76-21.57,75.24-26.33,11.25-2,22.62-2.52,33.82-.41,29,5.47,47.42,27.9,49.05,58.73,1,18.54-2.06,36.52-7,54.27-9.36,33.89-23.71,65.77-39.49,97-29.32,58.09-63.38,113.42-98.14,168.34-16.93,26.75-34.32,53.21-51.48,79.81-2,3-3.81,6.16-5.71,9.24ZM766.66,1075c-30.38,35.35-57.95,72.83-81,113.55C714.34,1151.9,741.08,1113.92,766.66,1075Z" style="fill: rgb(0, 0, 0);"/></g></g></svg>