<?xml version="1.0" encoding="UTF-8"?><!DOCTYPE svg PUBLIC "-//W3C//DTD SVG 1.0//EN" "http://www.w3.org/TR/2001/REC-SVG-20010904/DTD/svg10.dtd" []><svg xmlns="http://www.w3.org/2000/svg" xmlns:xlink="http://www.w3.org/1999/xlink" clip-rule="evenodd" fill-rule="evenodd" height="2124" preserveAspectRatio="xMidYMid meet" stroke-linejoin="round" stroke-miterlimit="2" version="1.0" viewBox="-0.0 -4.5 1956.1 2123.6" width="1956" zoomAndPan="magnify"><g><g id="change1_1"><path d="M26825,2091.17C26777.3,2281.9 26722.8,2421.49 26673.9,2494.6C26653.6,2524.98 26622.4,2562.1 26586.4,2557.62C26555.8,2553.8 26541.4,2522.19 26536.8,2512C26470.1,2365.34 26531.1,2054.2 26639.6,1773.63C26709.6,1592.51 26803.2,1414.18 26905,1288.65C26905.4,1281.62 26905.8,1274.56 26906.2,1267.49C26935.2,766.056 26938.2,568.686 26924.4,499.803C26921.9,487.239 26919.3,481.647 26917.9,479.315C26915.8,480.263 26911.4,482.778 26902.8,489.599C26846,534.888 26777,638.346 26734.1,707.057C26611,903.933 26483.6,1164.64 26433.4,1269.76C26433.9,1270.34 26434.4,1270.94 26434.7,1271.6C26435.7,1273.52 26436.4,1275.7 26436.6,1277.88C26436.8,1280.06 26436.7,1282.32 26436,1284.42C26435.4,1286.59 26434.3,1288.63 26432.9,1290.42C26425.4,1300.32 26417.3,1309.79 26409.4,1319.4C26404.4,1325.44 26397.9,1325.68 26396.7,1325.73C26389,1326.01 26384.4,1321.17 26383.6,1320.35C26378.3,1314.68 26379,1308.07 26379.1,1306.94C26379.2,1305.97 26379.3,1305.01 26379.6,1304.07C26379.9,1303.13 26380.2,1302.23 26380.6,1301.34C26381.4,1299.57 26393.8,1273.28 26395,1270.84C26455.9,1142.16 26615.8,813.895 26755.5,610.24C26787.1,564.223 26842,488.687 26891.3,454.238C26898.5,449.189 26914.9,438.543 26931.9,446.059C26950.2,454.143 26958.2,478.056 26962.7,516.799C26972.3,598.812 26969.7,781.235 26943.9,1243.76C26992.2,1191.78 27042,1152.67 27091.6,1131.5C27184.1,1092.01 27227,1153.54 27240.4,1175.52C27260.3,1208.26 27279.4,1263.7 27286.5,1363.51C27288.1,1386.34 27289,1409.79 27289.3,1433.34C27292.6,1419.86 27296.1,1405.48 27299.9,1389.83L27329.7,1269.95C27330.6,1266.16 27331.5,1262.35 27332.5,1258.58C27332.8,1257.42 27333.2,1256.28 27333.6,1255.18C27337.4,1246.41 27345.2,1243.76 27346.5,1243.31C27355.5,1240.21 27362.7,1244.13 27363.9,1244.8C27372.3,1249.39 27374.2,1257.32 27374.6,1258.68C27374.9,1259.84 27375,1261.04 27375.1,1262.23C27375.1,1262.23 27382.1,1363.24 27395.5,1420.93C27399.7,1375.4 27391.7,1307.79 27392.5,1290.73C27392.5,1289.06 27392.7,1281.79 27397.3,1275.68C27400.6,1271.32 27404.5,1269.35 27405.2,1268.98C27409.2,1266.98 27413.1,1266.74 27413.8,1266.7C27416.7,1266.52 27418.6,1266.85 27419,1266.92C27419.8,1267.06 27424,1267.78 27428.4,1270.89C27435.1,1275.69 27437.6,1283.24 27439.4,1289.13C27444.2,1304.78 27447.9,1324.54 27457.7,1353.77C27465.2,1376.1 27471.3,1388.77 27475.4,1395.75C27477.6,1379.94 27479.6,1348.69 27486.6,1300.79C27486.7,1299.95 27486.8,1299.09 27487,1298.25C27487.2,1296.98 27487.5,1295.7 27487.9,1294.46C27491.1,1284.59 27499.4,1281.28 27500.8,1280.71C27510.5,1276.84 27518.3,1281.01 27519.7,1281.71C27520.7,1282.29 27526.8,1285.52 27529.9,1293.03C27530.4,1294.24 27530.7,1295.5 27531.1,1296.75C27531.4,1297.95 27533.5,1308.16 27533.7,1309.16C27539.6,1337.52 27542.6,1358.95 27544.9,1372.52C27552,1361.78 27563.3,1345.16 27581.7,1320.29C27582.1,1319.76 27582.5,1319.2 27582.9,1318.69C27583.7,1317.72 27584.5,1316.72 27585.4,1315.85C27592.6,1308.87 27601.2,1309.47 27602.7,1309.57C27612.7,1310.26 27618,1317.02 27618.9,1318.17C27619.7,1319.11 27623.8,1324.36 27623.8,1332.23C27623.8,1335.14 27623.6,1335.13 27623.1,1338.01C27617.5,1372.39 27615.6,1410.91 27621.7,1427.11C27621.7,1427.14 27621.7,1427.18 27621.7,1427.23C27622.2,1427 27622.7,1426.72 27623.1,1426.41C27629.6,1421.79 27637,1408.75 27637,1408.69C27677,1340.53 27716.2,1149.82 27739.6,1003.62C27741.6,991.501 27743,981.991 27743,981.952C27743.3,980.632 27743.6,979.298 27744,978.021C27747.5,967.779 27756.1,964.359 27757.5,963.778C27767.6,959.777 27775.7,964.094 27777.1,964.828C27786.7,969.878 27788.7,978.899 27789.1,980.432C27789.3,981.749 27789.5,983.096 27789.6,984.444C27789.7,985.791 27789.5,987.143 27789.4,988.488C27789.2,991.681 27777.4,1078.04 27771.6,1173.92C27767.8,1236.56 27760.1,1398.75 27794.6,1488.29C27810.4,1529.45 27830.1,1540.87 27840.7,1534.33C27841.7,1533.72 27842.3,1533.12 27842.5,1532.94C27848.8,1524.64 27862.4,1492.38 27874.6,1458C27879.8,1443.33 27878.7,1442.99 27928.9,1271.09C27932,1260.6 27940.3,1256.54 27941.8,1255.84C27951.6,1251.07 27960.2,1254.56 27961.7,1255.16C27971.8,1259.25 27975,1268.01 27975.6,1269.51C27976.3,1271.44 27976.6,1273.15 27976.7,1273.47C27981.2,1297.85 27984.2,1317.06 27986.3,1331.97C27992,1319.97 27999.5,1304.62 28009.5,1285.11C28009.8,1284.44 28010.1,1283.75 28010.5,1283.1C28011.2,1281.86 28011.9,1280.58 28012.8,1279.43C28019.8,1270.17 28029.7,1269.66 28031.4,1269.58C28032.8,1269.51 28040.4,1269.12 28047.7,1274.58C28053.8,1279.19 28057.1,1286.39 28057.7,1287.59C28061.5,1295.66 28062.1,1303.92 28062.3,1310.3C28077,1306.06 28103,1293.7 28129.9,1282.63C28180.5,1261.85 28239,1243.34 28308.5,1243.17C28310.1,1243.17 28319,1243.15 28326.5,1250.62C28331.9,1256.05 28333.2,1262.29 28333.4,1263.43C28334.4,1268.52 28333.5,1272.81 28333.4,1273.61C28333.1,1275.11 28331.3,1283.68 28322.7,1289.52C28318.5,1292.36 28314.4,1293.19 28313.6,1293.35C28310.4,1294.02 28310.3,1293.86 28307,1293.87C28199.5,1294.23 28120.4,1346.31 28074.6,1358.75C28066.1,1361.07 28046.5,1365.75 28030.4,1354.87C28022.9,1370.65 28019.5,1378.87 28015.4,1387.66C28011.7,1395.76 28006.8,1405.14 27993.8,1409.76C27988.9,1411.5 27973.7,1417 27959.7,1407.59C27948.9,1400.28 27945.1,1388.34 27942.8,1375.76C27940.9,1403.41 27937.4,1428.19 27918.6,1479.63C27898.3,1535.03 27887.5,1552.38 27886.9,1553.42C27883.1,1559.96 27877.3,1569.25 27864.6,1576.5C27838,1591.7 27793.5,1589.15 27761.9,1532.35C27733.9,1481.99 27723,1402.23 27720.9,1317.11C27709,1358.11 27696,1394.71 27682.4,1421.11C27664,1456.68 27648.1,1466.98 27633.4,1471.59C27611.1,1478.58 27589.4,1469.82 27579.4,1444.19C27576.3,1436.4 27573.9,1426.16 27572.9,1412.12C27568.8,1418.21 27562.1,1426.93 27548.4,1427.82C27542.3,1428.21 27527.5,1429.08 27516.1,1418.66C27513.6,1426.37 27509.8,1432.92 27503.3,1437.98C27500,1440.59 27492.7,1445.64 27477.1,1446.42C27457.2,1447.42 27444.9,1430.05 27441.2,1424.76C27440.8,1424.14 27440.2,1423.31 27439.5,1422.22C27438.8,1430.94 27437.7,1439.15 27436.1,1446.48C27433.4,1459.1 27426.8,1482.23 27405.8,1489.18C27394.2,1493.02 27380,1491.05 27369.4,1475.61C27363.3,1466.73 27356.8,1451.25 27350.2,1417.88C27348.3,1408.22 27346.5,1397.9 27344.9,1387.36C27311.3,1521.96 27302.6,1562.05 27268,1751.2C27267.3,1755.07 27266.6,1758.95 27265.8,1762.8C27265.6,1763.99 27265.3,1765.17 27264.9,1766.32C27264.4,1767.64 27261.5,1775.45 27252.4,1778.84C27251.1,1779.33 27243.3,1782.22 27234.8,1777.49C27233.5,1776.8 27226.3,1772.76 27224.3,1763.22C27224.1,1762.03 27223.9,1760.82 27223.9,1759.6C27223.8,1757.48 27223.9,1757.48 27224.2,1755.38C27238.5,1658.45 27270.6,1372.1 27221.3,1231.96C27198.8,1167.69 27168.2,1160.43 27151.5,1159.62C27134.5,1158.8 27114.5,1164.34 27087.7,1178.64C27038.9,1204.77 26988.9,1250.34 26940,1309.66C26921.7,1595.84 26882.7,1846.91 26835.7,2047.09C26943.9,1994.13 26991.2,1958.49 27229.9,1846.29C27730.6,1610.95 28100.5,1504.96 28125.9,1496.83L28125.9,1496.86C28129.2,1496.76 28132.5,1495.69 28135.8,1495.59C28137.5,1495.54 28139.1,1495.99 28140.7,1496.42C28150.7,1499.15 28155.1,1506.68 28155.9,1508C28156.3,1508.7 28158.5,1512.47 28159.2,1517.63C28159.4,1519.15 28160.5,1527.83 28154.2,1536.14C28151.2,1540.19 28147.6,1542.29 28146.9,1542.69C28146.4,1542.97 28144.3,1544.24 28140.6,1545.36C28116.6,1552.65 27703,1663.67 27160.8,1921.3C26980.5,2006.94 26940.8,2037.39 26825,2091.17ZM26792.3,2067.66C26838.8,1878.99 26879,1639 26900,1361.62C26787.2,1517.4 26683.8,1740.07 26618.1,1956.05C26546.5,2191.46 26525.2,2400.88 26573.6,2500.51C26575.6,2504.56 26583,2519.02 26591.5,2519.8C26604.9,2521.03 26643.2,2493.32 26695.4,2371.33C26724.1,2304.33 26753.6,2216.6 26781.3,2110.93C26753,2123.42 26720.4,2137.31 26681.5,2153.29C26681.2,2153.38 26678.5,2154.49 26678.5,2154.49C26676.3,2154.91 26674.1,2155.77 26671.9,2155.76C26669.7,2155.76 26667.5,2155.28 26665.5,2154.44C26663.4,2153.6 26661.5,2152.37 26660,2150.82C26660,2150.81 26656.2,2145.21 26656.2,2145.2C26655.8,2142.99 26654.9,2140.82 26654.9,2138.57C26654.9,2136.38 26655.4,2134.16 26656.2,2132.14C26657.1,2130.12 26658.3,2128.21 26659.9,2126.66C26661.5,2125.06 26663.5,2124.01 26665.5,2122.86C26666.2,2122.41 26727.9,2097.37 26792.3,2067.66ZM28051.6,1323.21C28051.5,1323.32 28051.4,1323.41 28051.3,1323.52L28051.6,1323.21Z" transform="matrix(1,0,0,1,-17130,-4686) matrix(1,0,0,1,-9248.33,4242.98)"/></g></g></svg>