<svg xmlns="http://www.w3.org/2000/svg" xmlns:xlink="http://www.w3.org/1999/xlink" preserveAspectRatio="xMidYMid meet" version="1.0" viewBox="84.4 3.7 331.2 492.6" zoomAndPan="magnify" style="fill: rgb(0, 0, 0);" original_string_length="767"><g clip-rule="evenodd" fill-rule="evenodd"><g id="__id0_sxsffnxngf"><path d="M250,88.6L411.4,250L250,411.4L88.6,250L250,88.6z" style="fill: rgb(227, 178, 31);"/></g><g id="__id1_sxsffnxngf"><path d="M330.7,245.8L250,165.1l-80.7,80.7l-76.6-76.6L250,12 c0,0,138.6,138.6,157.3,157.3L330.7,245.8z M173.4,250l76.6,76.6l76.6-76.6L250,173.4L173.4,250z M169.3,254.2l80.7,80.7l80.7-80.7 l76.6,76.6L250,488L92.7,330.7L169.3,254.2z M165.1,250l-80.7,80.7L250,496.3l165.6-165.6L334.9,250l80.7-80.7L250,3.7L84.4,169.3 L165.1,250z" style="fill: rgb(38, 120, 110);"/></g></g></svg>